<?xml version="1.0" encoding="UTF-8"?>
<!DOCTYPE svg PUBLIC "-//W3C//DTD SVG 1.1//EN"
    "http://www.w3.org/Graphics/SVG/1.1/DTD/svg11.dtd"><svg stroke="rgb(0,0,0)" xmlns="http://www.w3.org/2000/svg" font-size="1" width="600.0000" stroke-opacity="1" xmlns:xlink="http://www.w3.org/1999/xlink" viewBox="0.0 0.0 600.0 1066.6666666666667" height="1066.6667" version="1.1"><defs></defs><g fill="rgb(240,128,128)" stroke="rgb(0,0,0)" stroke-linecap="butt" stroke-width="3.2" stroke-miterlimit="10.0" fill-opacity="1.0" stroke-opacity="1.0" stroke-linejoin="miter"><path d="M 600.0000,600.0000 c 0.0000,-36.8190 -29.8477,-66.6667 -66.6667 -66.6667c -36.8190,-0.0000 -66.6667,29.8477 -66.6667 66.6667c -0.0000,36.8190 29.8477,66.6667 66.6667 66.6667c 36.8190,0.0000 66.6667,-29.8477 66.6667 -66.6667Z"/></g><g fill="rgb(255,255,255)" stroke="rgb(0,0,0)" stroke-linecap="butt" stroke-width="3.2" font-size="33.333333333333336px" stroke-miterlimit="10.0" fill-opacity="1.0" stroke-opacity="1.0" stroke-linejoin="miter"><text dominant-baseline="middle" stroke="none" transform="matrix(1.0000,0.0000,0.0000,1.0000,533.3333,600.0000)" text-anchor="middle">mix</text></g><g fill="rgb(240,128,128)" stroke="rgb(0,0,0)" stroke-linecap="butt" stroke-width="3.2" stroke-miterlimit="10.0" fill-opacity="1.0" stroke-opacity="1.0" stroke-linejoin="miter"><path d="M 133.3333,1000.0000 c 0.0000,-36.8190 -29.8477,-66.6667 -66.6667 -66.6667c -36.8190,-0.0000 -66.6667,29.8477 -66.6667 66.6667c -0.0000,36.8190 29.8477,66.6667 66.6667 66.6667c 36.8190,0.0000 66.6667,-29.8477 66.6667 -66.6667Z"/></g><g fill="rgb(255,255,255)" stroke="rgb(0,0,0)" stroke-linecap="butt" stroke-width="3.2" font-size="33.333333333333336px" stroke-miterlimit="10.0" fill-opacity="1.0" stroke-opacity="1.0" stroke-linejoin="miter"><text dominant-baseline="middle" stroke="none" transform="matrix(1.0000,0.0000,0.0000,1.0000,66.6667,1000.0000)" text-anchor="middle">Nancy</text></g><g fill="rgb(240,128,128)" stroke="rgb(0,0,0)" stroke-linecap="butt" stroke-width="3.2" stroke-miterlimit="10.0" fill-opacity="1.0" stroke-opacity="1.0" stroke-linejoin="miter"><path d="M 133.3333,766.6667 c 0.0000,-36.8190 -29.8477,-66.6667 -66.6667 -66.6667c -36.8190,-0.0000 -66.6667,29.8477 -66.6667 66.6667c -0.0000,36.8190 29.8477,66.6667 66.6667 66.6667c 36.8190,0.0000 66.6667,-29.8477 66.6667 -66.6667Z"/></g><g fill="rgb(255,255,255)" stroke="rgb(0,0,0)" stroke-linecap="butt" stroke-width="3.2" font-size="33.333333333333336px" stroke-miterlimit="10.0" fill-opacity="1.0" stroke-opacity="1.0" stroke-linejoin="miter"><text dominant-baseline="middle" stroke="none" transform="matrix(1.0000,0.0000,0.0000,1.0000,66.6667,766.6667)" text-anchor="middle">George</text></g><g fill="rgb(240,128,128)" stroke="rgb(0,0,0)" stroke-linecap="butt" stroke-width="3.2" stroke-miterlimit="10.0" fill-opacity="1.0" stroke-opacity="1.0" stroke-linejoin="miter"><path d="M 133.3333,533.3333 c 0.0000,-36.8190 -29.8477,-66.6667 -66.6667 -66.6667c -36.8190,-0.0000 -66.6667,29.8477 -66.6667 66.6667c -0.0000,36.8190 29.8477,66.6667 66.6667 66.6667c 36.8190,0.0000 66.6667,-29.8477 66.6667 -66.6667Z"/></g><g fill="rgb(255,255,255)" stroke="rgb(0,0,0)" stroke-linecap="butt" stroke-width="3.2" font-size="33.333333333333336px" stroke-miterlimit="10.0" fill-opacity="1.0" stroke-opacity="1.0" stroke-linejoin="miter"><text dominant-baseline="middle" stroke="none" transform="matrix(1.0000,0.0000,0.0000,1.0000,66.6667,533.3333)" text-anchor="middle">Harry</text></g><g fill="rgb(240,128,128)" stroke="rgb(0,0,0)" stroke-linecap="butt" stroke-width="3.2" stroke-miterlimit="10.0" fill-opacity="1.0" stroke-opacity="1.0" stroke-linejoin="miter"><path d="M 133.3333,300.0000 c 0.0000,-36.8190 -29.8477,-66.6667 -66.6667 -66.6667c -36.8190,-0.0000 -66.6667,29.8477 -66.6667 66.6667c -0.0000,36.8190 29.8477,66.6667 66.6667 66.6667c 36.8190,0.0000 66.6667,-29.8477 66.6667 -66.6667Z"/></g><g fill="rgb(255,255,255)" stroke="rgb(0,0,0)" stroke-linecap="butt" stroke-width="3.2" font-size="33.333333333333336px" stroke-miterlimit="10.0" fill-opacity="1.0" stroke-opacity="1.0" stroke-linejoin="miter"><text dominant-baseline="middle" stroke="none" transform="matrix(1.0000,0.0000,0.0000,1.0000,66.6667,300.0000)" text-anchor="middle">Dick</text></g><g fill="rgb(240,128,128)" stroke="rgb(0,0,0)" stroke-linecap="butt" stroke-width="3.2" stroke-miterlimit="10.0" fill-opacity="1.0" stroke-opacity="1.0" stroke-linejoin="miter"><path d="M 133.3333,66.6667 c 0.0000,-36.8190 -29.8477,-66.6667 -66.6667 -66.6667c -36.8190,-0.0000 -66.6667,29.8477 -66.6667 66.6667c -0.0000,36.8190 29.8477,66.6667 66.6667 66.6667c 36.8190,0.0000 66.6667,-29.8477 66.6667 -66.6667Z"/></g><g fill="rgb(255,255,255)" stroke="rgb(0,0,0)" stroke-linecap="butt" stroke-width="3.2" font-size="33.333333333333336px" stroke-miterlimit="10.0" fill-opacity="1.0" stroke-opacity="1.0" stroke-linejoin="miter"><text dominant-baseline="middle" stroke="none" transform="matrix(1.0000,0.0000,0.0000,1.0000,66.6667,66.6667)" text-anchor="middle">Tom</text></g><g fill="rgb(0,0,0)" stroke="rgb(0,0,0)" stroke-linecap="butt" stroke-width="3.2" stroke-miterlimit="10.0" fill-opacity="0.0" stroke-opacity="1.0" stroke-linejoin="miter"><path d="M 131.2550,944.6386 l 312.1814,-267.5841 "/></g><g fill="rgb(0,0,0)" stroke="rgb(0,0,0)" stroke-linecap="butt" stroke-width="0.0" stroke-miterlimit="10.0" fill-opacity="1.0" stroke-opacity="1.0" stroke-linejoin="miter"></g><g fill="rgb(0,0,0)" stroke="rgb(0,0,0)" stroke-linecap="butt" stroke-width="0.0" stroke-miterlimit="10.0" fill-opacity="1.0" stroke-opacity="1.0" stroke-linejoin="miter"></g><g fill="rgb(0,0,0)" stroke="rgb(0,0,0)" stroke-linecap="butt" stroke-width="0.0" stroke-miterlimit="10.0" fill-opacity="1.0" stroke-opacity="1.0" stroke-linejoin="miter"><path d="M 468.7450,655.3614 l -38.0382,15.8348 l 13.3683,5.3108 l 3.2038,14.0233 Z"/></g><g fill="rgb(0,0,0)" stroke="rgb(0,0,0)" stroke-linecap="butt" stroke-width="0.0" stroke-miterlimit="10.0" fill-opacity="1.0" stroke-opacity="1.0" stroke-linejoin="miter"><path d="M 444.0751,676.5071 l -0.6387,0.5474 l -1.0413,-1.2148 l 1.6799,0.6674 l -0.6387,0.5474 l 1.0413,1.2148 Z"/></g><g fill="rgb(0,0,0)" stroke="rgb(0,0,0)" stroke-linecap="butt" stroke-width="3.2" stroke-miterlimit="10.0" fill-opacity="0.0" stroke-opacity="1.0" stroke-linejoin="miter"><path d="M 146.7946,738.0495 l 275.0194,-98.2212 "/></g><g fill="rgb(0,0,0)" stroke="rgb(0,0,0)" stroke-linecap="butt" stroke-width="0.0" stroke-miterlimit="10.0" fill-opacity="1.0" stroke-opacity="1.0" stroke-linejoin="miter"></g><g fill="rgb(0,0,0)" stroke="rgb(0,0,0)" stroke-linecap="butt" stroke-width="0.0" stroke-miterlimit="10.0" fill-opacity="1.0" stroke-opacity="1.0" stroke-linejoin="miter"></g><g fill="rgb(0,0,0)" stroke="rgb(0,0,0)" stroke-linecap="butt" stroke-width="0.0" stroke-miterlimit="10.0" fill-opacity="1.0" stroke-opacity="1.0" stroke-linejoin="miter"><path d="M 453.2054,628.6171 l -41.1853,1.1891 l 10.5861,9.7392 l -2.0215,14.2419 Z"/></g><g fill="rgb(0,0,0)" stroke="rgb(0,0,0)" stroke-linecap="butt" stroke-width="0.0" stroke-miterlimit="10.0" fill-opacity="1.0" stroke-opacity="1.0" stroke-linejoin="miter"><path d="M 422.6061,639.5454 l -0.7922,0.2829 l -0.5381,-1.5068 l 1.3303,1.2239 l -0.7922,0.2829 l 0.5381,1.5068 Z"/></g><g fill="rgb(0,0,0)" stroke="rgb(0,0,0)" stroke-linecap="butt" stroke-width="3.2" stroke-miterlimit="10.0" fill-opacity="0.0" stroke-opacity="1.0" stroke-linejoin="miter"><path d="M 150.8867,545.3648 l 265.2282,37.8897 "/></g><g fill="rgb(0,0,0)" stroke="rgb(0,0,0)" stroke-linecap="butt" stroke-width="0.0" stroke-miterlimit="10.0" fill-opacity="1.0" stroke-opacity="1.0" stroke-linejoin="miter"></g><g fill="rgb(0,0,0)" stroke="rgb(0,0,0)" stroke-linecap="butt" stroke-width="0.0" stroke-miterlimit="10.0" fill-opacity="1.0" stroke-opacity="1.0" stroke-linejoin="miter"></g><g fill="rgb(0,0,0)" stroke="rgb(0,0,0)" stroke-linecap="butt" stroke-width="0.0" stroke-miterlimit="10.0" fill-opacity="1.0" stroke-opacity="1.0" stroke-linejoin="miter"><path d="M 449.1133,587.9686 l -36.9915,-18.1460 l 4.8259,13.5510 l -8.4271,11.6577 Z"/></g><g fill="rgb(0,0,0)" stroke="rgb(0,0,0)" stroke-linecap="butt" stroke-width="0.0" stroke-miterlimit="10.0" fill-opacity="1.0" stroke-opacity="1.0" stroke-linejoin="miter"><path d="M 416.9477,583.3735 l -0.8327,-0.1190 l 0.2263,-1.5839 l 0.6064,1.7029 l -0.8327,-0.1190 l -0.2263,1.5839 Z"/></g><g fill="rgb(0,0,0)" stroke="rgb(0,0,0)" stroke-linecap="butt" stroke-width="3.2" stroke-miterlimit="10.0" fill-opacity="0.0" stroke-opacity="1.0" stroke-linejoin="miter"><path d="M 138.2297,346.0048 l 295.5013,189.9651 "/></g><g fill="rgb(0,0,0)" stroke="rgb(0,0,0)" stroke-linecap="butt" stroke-width="0.0" stroke-miterlimit="10.0" fill-opacity="1.0" stroke-opacity="1.0" stroke-linejoin="miter"></g><g fill="rgb(0,0,0)" stroke="rgb(0,0,0)" stroke-linecap="butt" stroke-width="0.0" stroke-miterlimit="10.0" fill-opacity="1.0" stroke-opacity="1.0" stroke-linejoin="miter"></g><g fill="rgb(0,0,0)" stroke="rgb(0,0,0)" stroke-linecap="butt" stroke-width="0.0" stroke-miterlimit="10.0" fill-opacity="1.0" stroke-opacity="1.0" stroke-linejoin="miter"><path d="M 461.7703,553.9952 l -26.0773,-31.9002 l -1.2544,14.3298 l -12.5157,7.0904 Z"/></g><g fill="rgb(0,0,0)" stroke="rgb(0,0,0)" stroke-linecap="butt" stroke-width="0.0" stroke-miterlimit="10.0" fill-opacity="1.0" stroke-opacity="1.0" stroke-linejoin="miter"><path d="M 434.4386,536.4248 l -0.7076,-0.4549 l 0.8652,-1.3459 l -0.1576,1.8008 l -0.7076,-0.4549 l -0.8652,1.3459 Z"/></g><g fill="rgb(0,0,0)" stroke="rgb(0,0,0)" stroke-linecap="butt" stroke-width="3.2" stroke-miterlimit="10.0" fill-opacity="0.0" stroke-opacity="1.0" stroke-linejoin="miter"><path d="M 122.6841,130.6865 l 332.6817,380.2077 "/></g><g fill="rgb(0,0,0)" stroke="rgb(0,0,0)" stroke-linecap="butt" stroke-width="0.0" stroke-miterlimit="10.0" fill-opacity="1.0" stroke-opacity="1.0" stroke-linejoin="miter"></g><g fill="rgb(0,0,0)" stroke="rgb(0,0,0)" stroke-linecap="butt" stroke-width="0.0" stroke-miterlimit="10.0" fill-opacity="1.0" stroke-opacity="1.0" stroke-linejoin="miter"></g><g fill="rgb(0,0,0)" stroke="rgb(0,0,0)" stroke-linecap="butt" stroke-width="0.0" stroke-miterlimit="10.0" fill-opacity="1.0" stroke-opacity="1.0" stroke-linejoin="miter"><path d="M 477.3159,535.9801 l -16.2221,-37.8747 l -5.1741,13.4218 l -13.9899,3.3467 Z"/></g><g fill="rgb(0,0,0)" stroke="rgb(0,0,0)" stroke-linecap="butt" stroke-width="0.0" stroke-miterlimit="10.0" fill-opacity="1.0" stroke-opacity="1.0" stroke-linejoin="miter"><path d="M 455.9197,511.5273 l -0.5539,-0.6330 l 1.2041,-1.0536 l -0.6502,1.6867 l -0.5539,-0.6330 l -1.2041,1.0536 Z"/></g></svg>