<?xml version="1.0" encoding="UTF-8"?>
<!DOCTYPE svg PUBLIC "-//W3C//DTD SVG 1.1//EN"
    "http://www.w3.org/Graphics/SVG/1.1/DTD/svg11.dtd"><svg stroke="rgb(0,0,0)" xmlns="http://www.w3.org/2000/svg" font-size="1" width="300.0000" stroke-opacity="1" xmlns:xlink="http://www.w3.org/1999/xlink" viewBox="0.0 0.0 300.0 288.227321154587" height="288.2273" version="1.1"><defs></defs><g fill="rgb(0,128,0)" stroke="rgb(0,0,0)" stroke-linecap="butt" stroke-width="1.17621900237244" stroke-miterlimit="10.0" fill-opacity="1.0" stroke-opacity="1.0" stroke-linejoin="miter"><path d="M 105.4021,258.4954 c 0.0000,-16.4205 -13.3114,-29.7319 -29.7319 -29.7319c -16.4205,-0.0000 -29.7319,13.3114 -29.7319 29.7319c -0.0000,16.4205 13.3114,29.7319 29.7319 29.7319c 16.4205,0.0000 29.7319,-13.3114 29.7319 -29.7319Z"/></g><g fill="rgb(255,255,255)" stroke="rgb(0,0,0)" stroke-linecap="butt" stroke-width="1.17621900237244" font-size="11.89276302272154px" stroke-miterlimit="10.0" fill-opacity="1.0" stroke-opacity="1.0" stroke-linejoin="miter"><text dominant-baseline="middle" stroke="none" transform="matrix(1.0000,0.0000,0.0000,1.0000,75.6702,258.4954)" text-anchor="middle">dirauth5</text></g><g fill="rgb(0,128,0)" stroke="rgb(0,0,0)" stroke-linecap="butt" stroke-width="1.17621900237244" stroke-miterlimit="10.0" fill-opacity="1.0" stroke-opacity="1.0" stroke-linejoin="miter"><path d="M 59.4638,117.1118 c 0.0000,-16.4205 -13.3114,-29.7319 -29.7319 -29.7319c -16.4205,-0.0000 -29.7319,13.3114 -29.7319 29.7319c -0.0000,16.4205 13.3114,29.7319 29.7319 29.7319c 16.4205,0.0000 29.7319,-13.3114 29.7319 -29.7319Z"/></g><g fill="rgb(255,255,255)" stroke="rgb(0,0,0)" stroke-linecap="butt" stroke-width="1.17621900237244" font-size="11.89276302272154px" stroke-miterlimit="10.0" fill-opacity="1.0" stroke-opacity="1.0" stroke-linejoin="miter"><text dominant-baseline="middle" stroke="none" transform="matrix(1.0000,0.0000,0.0000,1.0000,29.7319,117.1118)" text-anchor="middle">dirauth4</text></g><g fill="rgb(0,128,0)" stroke="rgb(0,0,0)" stroke-linecap="butt" stroke-width="1.17621900237244" stroke-miterlimit="10.0" fill-opacity="1.0" stroke-opacity="1.0" stroke-linejoin="miter"><path d="M 179.7319,29.7319 c 0.0000,-16.4205 -13.3114,-29.7319 -29.7319 -29.7319c -16.4205,-0.0000 -29.7319,13.3114 -29.7319 29.7319c -0.0000,16.4205 13.3114,29.7319 29.7319 29.7319c 16.4205,0.0000 29.7319,-13.3114 29.7319 -29.7319Z"/></g><g fill="rgb(255,255,255)" stroke="rgb(0,0,0)" stroke-linecap="butt" stroke-width="1.17621900237244" font-size="11.89276302272154px" stroke-miterlimit="10.0" fill-opacity="1.0" stroke-opacity="1.0" stroke-linejoin="miter"><text dominant-baseline="middle" stroke="none" transform="matrix(1.0000,0.0000,0.0000,1.0000,150.0000,29.7319)" text-anchor="middle">dirauth3</text></g><g fill="rgb(0,128,0)" stroke="rgb(0,0,0)" stroke-linecap="butt" stroke-width="1.17621900237244" stroke-miterlimit="10.0" fill-opacity="1.0" stroke-opacity="1.0" stroke-linejoin="miter"><path d="M 300.0000,117.1118 c 0.0000,-16.4205 -13.3114,-29.7319 -29.7319 -29.7319c -16.4205,-0.0000 -29.7319,13.3114 -29.7319 29.7319c -0.0000,16.4205 13.3114,29.7319 29.7319 29.7319c 16.4205,0.0000 29.7319,-13.3114 29.7319 -29.7319Z"/></g><g fill="rgb(255,255,255)" stroke="rgb(0,0,0)" stroke-linecap="butt" stroke-width="1.17621900237244" font-size="11.89276302272154px" stroke-miterlimit="10.0" fill-opacity="1.0" stroke-opacity="1.0" stroke-linejoin="miter"><text dominant-baseline="middle" stroke="none" transform="matrix(1.0000,0.0000,0.0000,1.0000,270.2681,117.1118)" text-anchor="middle">dirauth2</text></g><g fill="rgb(0,128,0)" stroke="rgb(0,0,0)" stroke-linecap="butt" stroke-width="1.17621900237244" stroke-miterlimit="10.0" fill-opacity="1.0" stroke-opacity="1.0" stroke-linejoin="miter"><path d="M 254.0617,258.4954 c 0.0000,-16.4205 -13.3114,-29.7319 -29.7319 -29.7319c -16.4205,-0.0000 -29.7319,13.3114 -29.7319 29.7319c -0.0000,16.4205 13.3114,29.7319 29.7319 29.7319c 16.4205,0.0000 29.7319,-13.3114 29.7319 -29.7319Z"/></g><g fill="rgb(255,255,255)" stroke="rgb(0,0,0)" stroke-linecap="butt" stroke-width="1.17621900237244" font-size="11.89276302272154px" stroke-miterlimit="10.0" fill-opacity="1.0" stroke-opacity="1.0" stroke-linejoin="miter"><text dominant-baseline="middle" stroke="none" transform="matrix(1.0000,0.0000,0.0000,1.0000,224.3298,258.4954)" text-anchor="middle">dirauth1</text></g><g fill="rgb(0,0,0)" stroke="rgb(0,0,0)" stroke-linecap="butt" stroke-width="1.17621900237244" stroke-miterlimit="10.0" fill-opacity="0.0" stroke-opacity="1.0" stroke-linejoin="miter"><path d="M 41.0120,151.8284 l 16.4874,50.7429 "/></g><g fill="rgb(0,0,0)" stroke="rgb(0,0,0)" stroke-linecap="butt" stroke-width="0.0" stroke-miterlimit="10.0" fill-opacity="1.0" stroke-opacity="1.0" stroke-linejoin="miter"></g><g fill="rgb(0,0,0)" stroke="rgb(0,0,0)" stroke-linecap="butt" stroke-width="0.0" stroke-miterlimit="10.0" fill-opacity="1.0" stroke-opacity="1.0" stroke-linejoin="miter"></g><g fill="rgb(0,0,0)" stroke="rgb(0,0,0)" stroke-linecap="butt" stroke-width="0.0" stroke-miterlimit="10.0" fill-opacity="1.0" stroke-opacity="1.0" stroke-linejoin="miter"><path d="M 64.3901,223.7788 l 0.0000,-27.8847 l -6.7952,6.9712 l -9.5950,-1.6457 Z"/></g><g fill="rgb(0,0,0)" stroke="rgb(0,0,0)" stroke-linecap="butt" stroke-width="0.0" stroke-miterlimit="10.0" fill-opacity="1.0" stroke-opacity="1.0" stroke-linejoin="miter"><path d="M 57.5949,202.8653 l -0.0955,-0.2941 l 0.5593,-0.1817 l -0.4638,0.4758 l -0.0955,-0.2941 l -0.5593,0.1817 Z"/></g><g fill="rgb(0,0,0)" stroke="rgb(0,0,0)" stroke-linecap="butt" stroke-width="1.17621900237244" stroke-miterlimit="10.0" fill-opacity="0.0" stroke-opacity="1.0" stroke-linejoin="miter"><path d="M 138.7199,64.4485 l -44.8788,138.1228 "/></g><g fill="rgb(0,0,0)" stroke="rgb(0,0,0)" stroke-linecap="butt" stroke-width="0.0" stroke-miterlimit="10.0" fill-opacity="1.0" stroke-opacity="1.0" stroke-linejoin="miter"></g><g fill="rgb(0,0,0)" stroke="rgb(0,0,0)" stroke-linecap="butt" stroke-width="0.0" stroke-miterlimit="10.0" fill-opacity="1.0" stroke-opacity="1.0" stroke-linejoin="miter"></g><g fill="rgb(0,0,0)" stroke="rgb(0,0,0)" stroke-linecap="butt" stroke-width="0.0" stroke-miterlimit="10.0" fill-opacity="1.0" stroke-opacity="1.0" stroke-linejoin="miter"><path d="M 86.9503,223.7788 l 16.3902,-22.5592 l -9.5950,1.6457 l -6.7952,-6.9712 Z"/></g><g fill="rgb(0,0,0)" stroke="rgb(0,0,0)" stroke-linecap="butt" stroke-width="0.0" stroke-miterlimit="10.0" fill-opacity="1.0" stroke-opacity="1.0" stroke-linejoin="miter"><path d="M 93.7455,202.8653 l 0.0955,-0.2941 l 0.5593,0.1817 l -0.6549,0.1123 l 0.0955,-0.2941 l -0.5593,-0.1817 Z"/></g><g fill="rgb(0,0,0)" stroke="rgb(0,0,0)" stroke-linecap="butt" stroke-width="1.17621900237244" stroke-miterlimit="10.0" fill-opacity="0.0" stroke-opacity="1.0" stroke-linejoin="miter"><path d="M 120.4731,51.1845 l -43.1741,31.3678 "/></g><g fill="rgb(0,0,0)" stroke="rgb(0,0,0)" stroke-linecap="butt" stroke-width="0.0" stroke-miterlimit="10.0" fill-opacity="1.0" stroke-opacity="1.0" stroke-linejoin="miter"></g><g fill="rgb(0,0,0)" stroke="rgb(0,0,0)" stroke-linecap="butt" stroke-width="0.0" stroke-miterlimit="10.0" fill-opacity="1.0" stroke-opacity="1.0" stroke-linejoin="miter"></g><g fill="rgb(0,0,0)" stroke="rgb(0,0,0)" stroke-linecap="butt" stroke-width="0.0" stroke-miterlimit="10.0" fill-opacity="1.0" stroke-opacity="1.0" stroke-linejoin="miter"><path d="M 59.2588,95.6592 l 26.5199,-8.6168 l -8.7298,-4.3084 l -1.3999,-9.6339 Z"/></g><g fill="rgb(0,0,0)" stroke="rgb(0,0,0)" stroke-linecap="butt" stroke-width="0.0" stroke-miterlimit="10.0" fill-opacity="1.0" stroke-opacity="1.0" stroke-linejoin="miter"><path d="M 77.0489,82.7340 l 0.2501,-0.1817 l 0.3457,0.4758 l -0.5958,-0.2941 l 0.2501,-0.1817 l -0.3457,-0.4758 Z"/></g><g fill="rgb(0,0,0)" stroke="rgb(0,0,0)" stroke-linecap="butt" stroke-width="1.17621900237244" stroke-miterlimit="10.0" fill-opacity="0.0" stroke-opacity="1.0" stroke-linejoin="miter"><path d="M 240.7412,138.5643 l -117.5038,85.3715 "/></g><g fill="rgb(0,0,0)" stroke="rgb(0,0,0)" stroke-linecap="butt" stroke-width="0.0" stroke-miterlimit="10.0" fill-opacity="1.0" stroke-opacity="1.0" stroke-linejoin="miter"></g><g fill="rgb(0,0,0)" stroke="rgb(0,0,0)" stroke-linecap="butt" stroke-width="0.0" stroke-miterlimit="10.0" fill-opacity="1.0" stroke-opacity="1.0" stroke-linejoin="miter"></g><g fill="rgb(0,0,0)" stroke="rgb(0,0,0)" stroke-linecap="butt" stroke-width="0.0" stroke-miterlimit="10.0" fill-opacity="1.0" stroke-opacity="1.0" stroke-linejoin="miter"><path d="M 105.1971,237.0429 l 26.5199,-8.6168 l -8.7298,-4.3084 l -1.3999,-9.6339 Z"/></g><g fill="rgb(0,0,0)" stroke="rgb(0,0,0)" stroke-linecap="butt" stroke-width="0.0" stroke-miterlimit="10.0" fill-opacity="1.0" stroke-opacity="1.0" stroke-linejoin="miter"><path d="M 122.9872,224.1176 l 0.2501,-0.1817 l 0.3457,0.4758 l -0.5958,-0.2941 l 0.2501,-0.1817 l -0.3457,-0.4758 Z"/></g><g fill="rgb(0,0,0)" stroke="rgb(0,0,0)" stroke-linecap="butt" stroke-width="1.17621900237244" stroke-miterlimit="10.0" fill-opacity="0.0" stroke-opacity="1.0" stroke-linejoin="miter"><path d="M 233.7729,117.1118 l -145.2469,-0.0000 "/></g><g fill="rgb(0,0,0)" stroke="rgb(0,0,0)" stroke-linecap="butt" stroke-width="0.0" stroke-miterlimit="10.0" fill-opacity="1.0" stroke-opacity="1.0" stroke-linejoin="miter"></g><g fill="rgb(0,0,0)" stroke="rgb(0,0,0)" stroke-linecap="butt" stroke-width="0.0" stroke-miterlimit="10.0" fill-opacity="1.0" stroke-opacity="1.0" stroke-linejoin="miter"></g><g fill="rgb(0,0,0)" stroke="rgb(0,0,0)" stroke-linecap="butt" stroke-width="0.0" stroke-miterlimit="10.0" fill-opacity="1.0" stroke-opacity="1.0" stroke-linejoin="miter"><path d="M 66.2271,117.1118 l 26.5199,8.6168 l -4.5301,-8.6168 l 4.5301,-8.6168 Z"/></g><g fill="rgb(0,0,0)" stroke="rgb(0,0,0)" stroke-linecap="butt" stroke-width="0.0" stroke-miterlimit="10.0" fill-opacity="1.0" stroke-opacity="1.0" stroke-linejoin="miter"><path d="M 88.2168,117.1118 l 0.3092,0.0000 l -0.0000,0.5881 l -0.3092,-0.5881 l 0.3092,0.0000 l 0.0000,-0.5881 Z"/></g><g fill="rgb(0,0,0)" stroke="rgb(0,0,0)" stroke-linecap="butt" stroke-width="1.17621900237244" stroke-miterlimit="10.0" fill-opacity="0.0" stroke-opacity="1.0" stroke-linejoin="miter"><path d="M 240.7412,95.6592 l -43.1741,-31.3678 "/></g><g fill="rgb(0,0,0)" stroke="rgb(0,0,0)" stroke-linecap="butt" stroke-width="0.0" stroke-miterlimit="10.0" fill-opacity="1.0" stroke-opacity="1.0" stroke-linejoin="miter"></g><g fill="rgb(0,0,0)" stroke="rgb(0,0,0)" stroke-linecap="butt" stroke-width="0.0" stroke-miterlimit="10.0" fill-opacity="1.0" stroke-opacity="1.0" stroke-linejoin="miter"></g><g fill="rgb(0,0,0)" stroke="rgb(0,0,0)" stroke-linecap="butt" stroke-width="0.0" stroke-miterlimit="10.0" fill-opacity="1.0" stroke-opacity="1.0" stroke-linejoin="miter"><path d="M 179.5269,51.1845 l 16.3902,22.5592 l 1.3999,-9.6339 l 8.7298,-4.3084 Z"/></g><g fill="rgb(0,0,0)" stroke="rgb(0,0,0)" stroke-linecap="butt" stroke-width="0.0" stroke-miterlimit="10.0" fill-opacity="1.0" stroke-opacity="1.0" stroke-linejoin="miter"><path d="M 197.3170,64.1097 l 0.2501,0.1817 l -0.3457,0.4758 l 0.0955,-0.6575 l 0.2501,0.1817 l 0.3457,-0.4758 Z"/></g><g fill="rgb(0,0,0)" stroke="rgb(0,0,0)" stroke-linecap="butt" stroke-width="1.17621900237244" stroke-miterlimit="10.0" fill-opacity="0.0" stroke-opacity="1.0" stroke-linejoin="miter"><path d="M 187.8346,258.4954 l -53.3703,0.0000 "/></g><g fill="rgb(0,0,0)" stroke="rgb(0,0,0)" stroke-linecap="butt" stroke-width="0.0" stroke-miterlimit="10.0" fill-opacity="1.0" stroke-opacity="1.0" stroke-linejoin="miter"></g><g fill="rgb(0,0,0)" stroke="rgb(0,0,0)" stroke-linecap="butt" stroke-width="0.0" stroke-miterlimit="10.0" fill-opacity="1.0" stroke-opacity="1.0" stroke-linejoin="miter"></g><g fill="rgb(0,0,0)" stroke="rgb(0,0,0)" stroke-linecap="butt" stroke-width="0.0" stroke-miterlimit="10.0" fill-opacity="1.0" stroke-opacity="1.0" stroke-linejoin="miter"><path d="M 112.1654,258.4954 l 26.5199,8.6168 l -4.5301,-8.6168 l 4.5301,-8.6168 Z"/></g><g fill="rgb(0,0,0)" stroke="rgb(0,0,0)" stroke-linecap="butt" stroke-width="0.0" stroke-miterlimit="10.0" fill-opacity="1.0" stroke-opacity="1.0" stroke-linejoin="miter"><path d="M 134.1551,258.4954 l 0.3092,-0.0000 l 0.0000,0.5881 l -0.3092,-0.5881 l 0.3092,-0.0000 l -0.0000,-0.5881 Z"/></g><g fill="rgb(0,0,0)" stroke="rgb(0,0,0)" stroke-linecap="butt" stroke-width="1.17621900237244" stroke-miterlimit="10.0" fill-opacity="0.0" stroke-opacity="1.0" stroke-linejoin="miter"><path d="M 194.8029,237.0429 l -117.5038,-85.3715 "/></g><g fill="rgb(0,0,0)" stroke="rgb(0,0,0)" stroke-linecap="butt" stroke-width="0.0" stroke-miterlimit="10.0" fill-opacity="1.0" stroke-opacity="1.0" stroke-linejoin="miter"></g><g fill="rgb(0,0,0)" stroke="rgb(0,0,0)" stroke-linecap="butt" stroke-width="0.0" stroke-miterlimit="10.0" fill-opacity="1.0" stroke-opacity="1.0" stroke-linejoin="miter"></g><g fill="rgb(0,0,0)" stroke="rgb(0,0,0)" stroke-linecap="butt" stroke-width="0.0" stroke-miterlimit="10.0" fill-opacity="1.0" stroke-opacity="1.0" stroke-linejoin="miter"><path d="M 59.2588,138.5643 l 16.3902,22.5592 l 1.3999,-9.6339 l 8.7298,-4.3084 Z"/></g><g fill="rgb(0,0,0)" stroke="rgb(0,0,0)" stroke-linecap="butt" stroke-width="0.0" stroke-miterlimit="10.0" fill-opacity="1.0" stroke-opacity="1.0" stroke-linejoin="miter"><path d="M 77.0489,151.4896 l 0.2501,0.1817 l -0.3457,0.4758 l 0.0955,-0.6575 l 0.2501,0.1817 l 0.3457,-0.4758 Z"/></g><g fill="rgb(0,0,0)" stroke="rgb(0,0,0)" stroke-linecap="butt" stroke-width="1.17621900237244" stroke-miterlimit="10.0" fill-opacity="0.0" stroke-opacity="1.0" stroke-linejoin="miter"><path d="M 213.0497,223.7788 l -44.8788,-138.1228 "/></g><g fill="rgb(0,0,0)" stroke="rgb(0,0,0)" stroke-linecap="butt" stroke-width="0.0" stroke-miterlimit="10.0" fill-opacity="1.0" stroke-opacity="1.0" stroke-linejoin="miter"></g><g fill="rgb(0,0,0)" stroke="rgb(0,0,0)" stroke-linecap="butt" stroke-width="0.0" stroke-miterlimit="10.0" fill-opacity="1.0" stroke-opacity="1.0" stroke-linejoin="miter"></g><g fill="rgb(0,0,0)" stroke="rgb(0,0,0)" stroke-linecap="butt" stroke-width="0.0" stroke-miterlimit="10.0" fill-opacity="1.0" stroke-opacity="1.0" stroke-linejoin="miter"><path d="M 161.2801,64.4485 l -0.0000,27.8847 l 6.7952,-6.9712 l 9.5950,1.6457 Z"/></g><g fill="rgb(0,0,0)" stroke="rgb(0,0,0)" stroke-linecap="butt" stroke-width="0.0" stroke-miterlimit="10.0" fill-opacity="1.0" stroke-opacity="1.0" stroke-linejoin="miter"><path d="M 168.0753,85.3620 l 0.0955,0.2941 l -0.5593,0.1817 l 0.4638,-0.4758 l 0.0955,0.2941 l 0.5593,-0.1817 Z"/></g><g fill="rgb(0,0,0)" stroke="rgb(0,0,0)" stroke-linecap="butt" stroke-width="1.17621900237244" stroke-miterlimit="10.0" fill-opacity="0.0" stroke-opacity="1.0" stroke-linejoin="miter"><path d="M 235.6099,223.7788 l 16.4874,-50.7429 "/></g><g fill="rgb(0,0,0)" stroke="rgb(0,0,0)" stroke-linecap="butt" stroke-width="0.0" stroke-miterlimit="10.0" fill-opacity="1.0" stroke-opacity="1.0" stroke-linejoin="miter"></g><g fill="rgb(0,0,0)" stroke="rgb(0,0,0)" stroke-linecap="butt" stroke-width="0.0" stroke-miterlimit="10.0" fill-opacity="1.0" stroke-opacity="1.0" stroke-linejoin="miter"></g><g fill="rgb(0,0,0)" stroke="rgb(0,0,0)" stroke-linecap="butt" stroke-width="0.0" stroke-miterlimit="10.0" fill-opacity="1.0" stroke-opacity="1.0" stroke-linejoin="miter"><path d="M 258.9880,151.8284 l -16.3902,22.5592 l 9.5950,-1.6457 l 6.7952,6.9712 Z"/></g><g fill="rgb(0,0,0)" stroke="rgb(0,0,0)" stroke-linecap="butt" stroke-width="0.0" stroke-miterlimit="10.0" fill-opacity="1.0" stroke-opacity="1.0" stroke-linejoin="miter"><path d="M 252.1928,172.7419 l -0.0955,0.2941 l -0.5593,-0.1817 l 0.6549,-0.1123 l -0.0955,0.2941 l 0.5593,0.1817 Z"/></g></svg>